<?xml version="1.0" encoding="utf-8"?>
<!-- Svg Vector Icons : http://www.onlinewebfonts.com/icon -->
<!DOCTYPE svg PUBLIC "-//W3C//DTD SVG 1.1//EN" "http://www.w3.org/Graphics/SVG/1.1/DTD/svg11.dtd">
<svg version="1.1" xmlns="http://www.w3.org/2000/svg" xmlns:xlink="http://www.w3.org/1999/xlink" x="0px" y="0px" viewBox="0 0 1000 1000" enable-background="new 0 0 1000 1000" xml:space="preserve">
<metadata> Svg Vector Icons : http://www.onlinewebfonts.com/icon </metadata>
<g><path d="M502.2,990c-1.5,0-2.9,0-4.4,0c-11.4-6.9-22.7-13.9-34.2-20.6c-23-13.4-46.1-26.6-69-40.2c-5.5-3.3-11-4.8-17.5-4.8c-39.3,0.3-78.5,0.1-117.8,0.2c-3.3,0-5.4-0.6-6.9-3.8c-2.4-5-5.4-9.8-8.2-14.7c-14.8-25.5-29.5-51.1-44.4-76.5c-5.4-9.2-9.5-18.8-20.1-24.6c-33.8-18.6-66.9-38.3-100.4-57.3c-3.4-1.9-3.9-4.1-3.9-7.4c0.1-40,0.1-80-0.1-120c0-3.5-0.9-7.3-2.5-10.3c-4.4-8.3-9.4-16.3-14.1-24.4c-10.3-17.9-20.5-35.8-30.9-53.7c-5.8-10-11.8-19.7-17.8-29.6c0-1.5,0-2.9,0-4.4c8.5-14.2,17.1-28.4,25.5-42.7c10.6-18.1,20.9-36.4,31.6-54.5c5.4-9.1,8.8-18.1,8.6-29.2c-0.7-37-0.1-74.1-0.4-111.1c0-4.6,1.8-7,5.3-9c32.2-18.5,64.4-36.8,96.5-55.5c5-2.9,11-6,13.9-10.6c9.1-14.1,17.1-29,25.4-43.6c11.8-20.6,23.6-41.2,35.3-61.8c2-3.6,4.6-4.7,8.8-4.6c40.4,0.2,80.7,0.1,121.1,0.1c1.8,0,3.9,0.3,5.4-0.5c8.1-4.4,16-9.2,24-13.8c19.7-11.4,39.5-22.8,59.2-34.4c9.3-5.4,18.5-11.1,27.7-16.7c1.5,0,3,0,4.4,0c0.3,0.4,0.5,0.9,1,1.2c13.4,7.8,26.9,15.6,40.4,23.4c18.9,11,38,21.8,56.8,33.1c9.1,5.5,18.3,8.1,29.2,7.9c37-0.6,74.1-0.2,111.1-0.3c3.3,0,5.4,0.6,7,3.7c2.7,5.3,5.9,10.3,8.9,15.5c15.9,27.6,31.6,55.3,47.6,82.9c2.8,4.8,5.5,10.4,9.9,13.1c17.3,10.8,35.3,20.6,53,30.8c17.7,10.2,35.5,20.4,53.2,30.5c3.2,1.8,4.3,4.1,4.3,7.8c-0.2,40-0.2,80,0,120c0,3.5,0.9,7.3,2.5,10.3c4.4,8.3,9.4,16.3,14.1,24.4c10.3,17.9,20.5,35.8,30.9,53.7c5.8,9.9,11.8,19.7,17.8,29.6c0,1.5,0,3,0,4.4c-10,16.9-20.1,33.8-30,50.8c-10.4,17.8-20.5,35.8-31,53.6c-2.7,4.6-4.6,9.2-4.5,14.8c0.2,36.3-0.4,72.6,0.4,108.9c0.3,11.2-2.2,18.8-13,22.7c-0.2,0.1-0.4,0.1-0.5,0.2c-30.3,17.4-60.7,34.6-90.9,52.1c-4.3,2.5-8.7,5.4-11.5,9.3c-4.9,6.9-8.6,14.7-12.8,22c-15.8,27.6-31.7,55.3-47.5,82.9c-2.1,3.6-4.6,5.2-9.1,5.1c-40.4-0.2-80.7-0.1-121.1-0.1c-2,0-4.2,0-5.8,0.9c-9.7,5.3-19.2,10.9-28.8,16.4c-18.2,10.5-36.4,20.9-54.5,31.5C520.2,978.8,511.3,984.5,502.2,990z M507.5,630.5c-0.8-1.5-1.4-2.5-1.9-3.4c-48.2-96.4-96.4-192.7-144.5-289.2c-1.9-3.8-3.9-5.2-8.3-5.2c-35.6,0.2-71.2,0.1-106.7,0.1c-1.9,0-3.9,0-5.8,0c0,13.4,0,26,0,39c11.8,0,23.2,0.3,34.6-0.2c4.5-0.2,6.4,1.7,8.1,5.2c57.6,115.5,115.3,230.9,172.9,346.3c1.8,3.5,3.7,4.9,7.8,4.9c29.3-0.2,58.6-0.3,87.9,0c4.6,0,6.4-1.8,8.2-5.3c46.1-92.4,92.2-184.7,138.4-277c12.3-24.7,24.7-49.3,37.1-74.3c13,0,25.8,0,38.8,0c0-13,0-25.6,0-38.7c-2.3,0-4.3,0-6.3,0c-35.2,0-70.4,0.1-105.6-0.1c-4.5,0-6.7,1.5-8.6,5.4c-42.3,84.9-84.7,169.7-127.2,254.6C520.2,605.2,514,617.7,507.5,630.5z"/></g>
</svg>